HIERARCHY
ROOT Hips
{
	OFFSET 0.000000 0.000000 0.000000 
	CHANNELS 6 Xposition Yposition Zposition Zrotation Yrotation Xrotation
	JOINT LHipJoint
	{
		OFFSET 0.000000 0.000000 0.000000 
		CHANNELS 3 Zrotation Yrotation Xrotation
		JOINT LeftUpLeg
		{
			OFFSET 1.091560 -1.614060 0.765000 
			CHANNELS 3 Zrotation Yrotation Xrotation
			JOINT LeftLeg
			{
				OFFSET 2.337500 -6.422250 0.000000 
				CHANNELS 3 Zrotation Yrotation Xrotation
				JOINT LeftFoot
				{
					OFFSET 2.492470 -6.848000 0.000000 
					CHANNELS 3 Zrotation Yrotation Xrotation
					JOINT LeftToeBase
					{
						OFFSET 0.153120 -0.420690 1.454610 
						CHANNELS 3 Zrotation Yrotation Xrotation
						End Site
						{
							OFFSET 0.000000 -0.000000 0.770460 
						}
					}
				}
			}
		}
	}
	JOINT RHipJoint
	{
		OFFSET 0.000000 0.000000 0.000000 
		CHANNELS 3 Zrotation Yrotation Xrotation
		JOINT RightUpLeg
		{
			OFFSET -0.998830 -1.614060 0.765000 
			CHANNELS 3 Zrotation Yrotation Xrotation
			JOINT RightLeg
			{
				OFFSET -2.368770 -6.508150 0.000000 
				CHANNELS 3 Zrotation Yrotation Xrotation
				JOINT RightFoot
				{
					OFFSET -2.534520 -6.963530 0.000000 
					CHANNELS 3 Zrotation Yrotation Xrotation
					JOINT RightToeBase
					{
						OFFSET -0.131560 -0.361450 1.632370 
						CHANNELS 3 Zrotation Yrotation Xrotation
						End Site
						{
							OFFSET -0.000000 -0.000000 0.849790 
						}
					}
				}
			}
		}
	}
	JOINT LowerBack
	{
		OFFSET 0.000000 0.000000 0.000000 
		CHANNELS 3 Zrotation Yrotation Xrotation
		JOINT Spine
		{
			OFFSET -0.024310 1.982420 -0.136160 
			CHANNELS 3 Zrotation Yrotation Xrotation
			JOINT Spine1
			{
				OFFSET 0.036290 1.989740 -0.029540 
				CHANNELS 3 Zrotation Yrotation Xrotation
				JOINT Neck
				{
					OFFSET 0.000000 0.000000 0.000000 
					CHANNELS 3 Zrotation Yrotation Xrotation
					JOINT Neck1
					{
						OFFSET 0.093490 1.407830 0.223330 
						CHANNELS 3 Zrotation Yrotation Xrotation
						JOINT Head
						{
							OFFSET -0.042730 1.445000 -0.064950 
							CHANNELS 3 Zrotation Yrotation Xrotation
							End Site
							{
								OFFSET -0.022510 1.446000 -0.045440 
							}
						}
					}
				}
				JOINT LeftShoulder
				{
					OFFSET 0.000000 0.000000 0.000000 
					CHANNELS 3 Zrotation Yrotation Xrotation
					JOINT LeftArm
					{
						OFFSET 3.491370 0.851260 -0.297400 
						CHANNELS 3 Zrotation Yrotation Xrotation
						JOINT LeftForeArm
						{
							OFFSET 5.060350 -0.000000 0.000000 
							CHANNELS 3 Zrotation Yrotation Xrotation
							JOINT LeftHand
							{
								OFFSET 3.147800 -0.000000 0.000000 
								CHANNELS 3 Zrotation Yrotation Xrotation
								JOINT LeftFingerBase
								{
									OFFSET 0.000000 0.000000 0.000000 
									CHANNELS 3 Zrotation Yrotation Xrotation
									JOINT LeftHandIndex1
									{
										OFFSET 0.606750 -0.000000 0.000000 
										CHANNELS 3 Zrotation Yrotation Xrotation
										End Site
										{
											OFFSET 0.489180 -0.000000 0.000000 
										}
									}
								}
								JOINT LThumb
								{
									OFFSET 0.000000 0.000000 0.000000 
									CHANNELS 3 Zrotation Yrotation Xrotation
									End Site
									{
										OFFSET 0.496640 -0.000000 0.496640 
									}
								}
							}
						}
					}
				}
				JOINT RightShoulder
				{
					OFFSET 0.000000 0.000000 0.000000 
					CHANNELS 3 Zrotation Yrotation Xrotation
					JOINT RightArm
					{
						OFFSET -3.281010 0.697070 0.007470 
						CHANNELS 3 Zrotation Yrotation Xrotation
						JOINT RightForeArm
						{
							OFFSET -5.122730 -0.000000 -0.000000 
							CHANNELS 3 Zrotation Yrotation Xrotation
							JOINT RightHand
							{
								OFFSET -3.422000 -0.000000 0.000000 
								CHANNELS 3 Zrotation Yrotation Xrotation
								JOINT RightFingerBase
								{
									OFFSET 0.000000 0.000000 0.000000 
									CHANNELS 3 Zrotation Yrotation Xrotation
									JOINT RightHandIndex1
									{
										OFFSET -0.704600 -0.000000 0.000000 
										CHANNELS 3 Zrotation Yrotation Xrotation
										End Site
										{
											OFFSET -0.568070 -0.000000 0.000000 
										}
									}
								}
								JOINT RThumb
								{
									OFFSET 0.000000 0.000000 0.000000 
									CHANNELS 3 Zrotation Yrotation Xrotation
									End Site
									{
										OFFSET -0.576740 -0.000000 0.576740 
									}
								}
							}
						}
					}
				}
			}
		}
	}
}
MOTION
Frames: 5
Frame Time: 0.008333
0.000000 15.999991 0.000000 0.000000 0.000000 0.000000 0.000000 0.000000 0.000000 -21.000000 0.000000 0.000000 0.000000 0.000000 0.000000 0.000000 0.000000 0.000000 0.000000 0.000000 0.000000 0.000000 0.000000 0.000000 21.000000 0.000000 0.000000 0.000000 0.000000 0.000000 0.000000 0.000000 0.000000 0.000000 0.000000 0.000000 0.000000 0.000000 0.000000 0.000000 0.000000 0.000000 0.000000 0.000000 0.000000 0.000000 0.000000 -16.000000 0.000000 0.000000 21.000000 0.000000 0.000000 11.000000 0.000000 0.000000 0.000000 -8.000000 0.000000 0.000000 0.000000 0.000000 0.000000 0.000000 0.000000 0.000000 0.000000 0.000000 0.000000 0.000000 0.000000 0.000000 0.000000 0.000000 0.000000 0.000000 0.000000 0.000000 8.000000 0.000000 0.000000 0.000000 0.000000 0.000000 0.000000 0.000000 0.000000 0.000000 0.000000 0.000000 0.000000 0.000000 0.000000 0.000000 0.000000 0.000000 
0.000000 15.999991 0.000000 153.485001 88.092697 160.535995 0.000000 0.000000 0.000000 -19.239000 -5.159000 -10.247100 2.064100 8.998400 25.790199 1.419200 6.424400 -25.640301 0.237600 3.137300 8.661200 0.000000 0.000000 0.000000 13.188200 6.155200 -7.459900 -1.348900 -7.352500 20.764099 0.159900 -14.340900 -18.479200 -0.764100 5.582100 -15.576500 -5.144400 -0.974200 -6.869300 0.550000 -0.907800 -2.879100 3.389500 -0.389700 0.962500 2.348900 1.111000 2.825000 1.947900 1.876700 -8.376600 0.154300 0.823800 -3.172800 -0.000000 0.000000 0.000000 -91.725502 -4.867700 14.765700 6.008400 -10.276200 -0.540800 -0.000000 -0.000000 14.703300 16.716900 45.030602 11.996000 -7.125000 0.000000 -0.000000 -37.582298 73.338402 -26.170900 -0.000000 0.000000 0.000000 91.612701 -0.557300 5.198800 -8.746500 14.755500 -1.134700 0.000000 0.000000 17.514000 -24.127501 32.262901 -13.446400 7.125000 -0.000000 -0.000000 4.341300 4.602800 4.688700 
0.000000 15.999991 0.000000 145.757996 88.205704 152.649994 0.000000 0.000000 0.000000 -19.476801 -5.073900 -9.990900 2.056200 8.982100 25.739401 1.413500 6.592200 -25.702400 0.242200 3.167200 8.744700 0.000000 0.000000 0.000000 12.948100 5.887000 -7.511900 -1.369000 -7.405100 20.921301 0.123400 -13.988300 -18.395800 -0.804200 5.723200 -15.983400 -5.177400 -1.000600 -6.904900 0.467300 -0.937300 -2.800200 3.319100 -0.409700 1.065800 2.036500 1.027800 2.709600 2.016400 1.743000 -8.263800 0.236200 0.765900 -3.115800 0.000000 0.000000 0.000000 -91.694801 -4.856000 14.838600 6.053600 -10.351500 -0.548800 -0.000000 -0.000000 14.285000 16.797701 44.884602 12.025800 -7.125000 0.000000 -0.000000 -37.139702 73.262604 -25.783600 0.000000 0.000000 0.000000 91.654800 -0.485100 5.282200 -8.707400 14.693000 -1.124800 0.000000 0.000000 17.838600 -24.081100 32.265900 -13.419400 7.125000 -0.000000 -0.000000 4.367800 4.595100 4.716900 
0.000000 15.999991 0.000000 142.863998 88.132202 149.695999 0.000000 0.000000 0.000000 -19.603201 -4.995000 -9.920000 2.048400 8.966300 25.689800 1.421400 6.480900 -25.692101 0.248700 3.209100 8.861400 0.000000 0.000000 0.000000 12.826400 5.502600 -7.538300 -1.367000 -7.399800 20.905399 0.091400 -13.681500 -18.334999 -0.804700 5.725200 -15.989100 -5.461400 -1.131900 -6.810300 0.644000 -1.103500 -2.824500 3.650400 -0.488800 1.011400 1.281200 1.002200 2.448200 2.322400 1.665700 -7.842500 0.469700 0.744300 -2.932800 -0.000000 -0.000000 0.000000 -92.069099 -4.900900 14.065700 6.032100 -10.315700 -0.545000 -0.000000 -0.000000 14.719000 16.653799 44.870201 11.916900 -7.125000 0.000000 -0.000000 -37.259899 73.199799 -25.825199 -0.000000 -0.000000 0.000000 91.266602 -0.522200 5.614000 -8.698900 14.679300 -1.122600 0.000000 0.000000 17.957399 -23.799200 32.368900 -13.285200 7.125000 -0.000000 -0.000000 4.542600 4.635800 4.909800 
0.000000 15.999991 0.000000 146.897995 88.044998 153.850006 0.000000 0.000000 0.000000 -19.462400 -4.887100 -10.153600 2.048300 8.966000 25.689199 1.443000 6.151000 -25.649900 0.253300 3.238300 8.943000 0.000000 0.000000 0.000000 12.931200 5.800900 -7.589600 -1.366400 -7.398200 20.900499 0.128300 -14.045300 -18.421101 -0.763700 5.580600 -15.572300 -5.479900 -1.167700 -6.810400 0.682300 -1.150100 -2.895800 3.697600 -0.507500 0.943500 1.083100 0.804200 2.371100 2.390400 1.389400 -7.756100 0.535100 0.611400 -2.889600 0.000000 0.000000 0.000000 -92.095703 -4.994200 13.792600 6.018600 -10.293200 -0.542600 -0.000000 -0.000000 15.066600 16.526899 45.122002 11.874200 -7.125000 0.000000 -0.000000 -38.009701 73.334702 -26.487499 0.000000 0.000000 0.000000 91.212097 -0.540800 5.746400 -8.719600 14.712500 -1.127900 0.000000 0.000000 17.761200 -23.443600 32.403099 -13.082000 7.125000 -0.000000 -0.000000 4.747200 4.589600 5.128900 
